# xmcd
#
# Track frame offsets: 
#        150
#        14297
#        29192
#        43830
#        55120
#        67642
#        86612
#        98012
#        117602
#        134555
#        149610
#        175085
#        192600
#        209797
#        230332
#        244610
#        256485
#        270835
#        285865
#        301817
#        318810
#        331195
#        345295
#
# Disc length: 4847 seconds
#
# Revision: 0
# Processed by: cddbd v1.5.2PL0 Copyright (c) Steve Scherf et al.
# Submitted via: ExactAudioCopyFreeDBPlugin 1.0
#
DISCID=4912ed17
DTITLE=Various Artist - We Love Free Soul Vol. 2
DYEAR=2006
DGENRE=Soul
TTITLE0=Mackey Feary Band - You're Young
TTITLE1=Melissa Manchester - Bad Weather
TTITLE2=Lexia - Good Morning To You
TTITLE3=Tommie Young - Hit And Run Lover
TTITLE4=Alice Clark - Don't You Care
TTITLE5=Terry Callier - Ordinary Joe
TTITLE6=Jon Lucien - Would You Believe In Me
TTITLE7=Friends Of Distinction - When A Little Love Began To Die
TTITLE8=Phyllis Hymann - You Know How To Love Me
TTITLE9=Gloria Scott - That's What You Say
TTITLE10=Breakwater - Work It Out
TTITLE11=Edna Wright - Oops! Here We Go Again
TTITLE12=Niteflyte - You Are
TTITLE13=Linda Williams - Elavate Our Minds
TTITLE14=The Isley Brothers - Work To Do
TTITLE15=Jackie Trent and Tony Hatch - I Must Know
TTITLE16=Leon Thomas - Love Each Other
TTITLE17=Gil Scott-Heron - When You Are Who You Are
TTITLE18=Madeline Bell - That's What Friends Are For
TTITLE19=Meta Roos and Nippe Sylwens Band - The Real Thing
TTITLE20=Jose Feliciano - Wild World
TTITLE21=Youngbloods - Sunlight
TTITLE22=Dr. Buzzard's Original Savannah Band - Sunshower
EXTD=
EXTT0=
EXTT1=
EXTT2=
EXTT3=
EXTT4=
EXTT5=
EXTT6=
EXTT7=
EXTT8=
EXTT9=
EXTT10=
EXTT11=
EXTT12=
EXTT13=
EXTT14=
EXTT15=
EXTT16=
EXTT17=
EXTT18=
EXTT19=
EXTT20=
EXTT21=
EXTT22=
PLAYORDER=
